<?xml version="1.0" standalone="no"?>
<!DOCTYPE svg PUBLIC "-//W3C//DTD SVG 20010904//EN"
 "http://www.w3.org/TR/2001/REC-SVG-20010904/DTD/svg10.dtd">
<svg version="1.0" xmlns="http://www.w3.org/2000/svg"
 width="300.000000pt" height="300.000000pt" viewBox="0 0 300.000000 300.000000"
 preserveAspectRatio="xMidYMid meet">
<metadata>
Created by potrace 1.10, written by Peter Selinger 2001-2011
</metadata>
<g transform="translate(0.000000,300.000000) scale(0.100000,-0.100000)"
fill="#000000" stroke="none">
<path d="M60 2961 c0 -45 18 -101 32 -101 6 0 7 7 4 16 -3 9 -6 40 -6 70 0 41
-4 54 -15 54 -11 0 -15 -11 -15 -39z"/>
<path d="M138 2982 c-7 -25 5 -128 15 -139 13 -13 14 3 2 82 -7 53 -13 72 -17
57z"/>
<path d="M186 2943 c7 -58 21 -109 28 -102 10 10 -10 153 -22 157 -9 3 -11
-10 -6 -55z"/>
<path d="M397 2953 c25 -83 -2 -164 -68 -207 -85 -57 -224 -128 -287 -148 -42
-13 -51 -22 -33 -33 9 -5 161 37 191 54 10 6 23 0 42 -19 l27 -28 -24 -6 c-13
-3 -31 -3 -39 0 -21 8 -20 -5 0 -27 13 -15 20 -16 35 -6 16 10 22 9 30 -3 8
-12 9 -10 4 8 -9 31 11 28 47 -8 16 -16 38 -30 48 -30 14 0 18 -5 13 -16 -5
-13 -2 -15 15 -9 30 9 28 -3 -5 -31 -23 -19 -37 -23 -75 -20 -27 2 -48 2 -48
0 0 -12 40 -42 45 -34 7 12 41 13 48 3 2 -5 2 -2 1 5 -2 6 5 12 16 12 11 0 20
4 20 10 0 13 41 34 49 24 6 -10 47 -34 56 -34 17 0 0 28 -25 43 -30 18 -30 19
-13 42 10 14 24 25 31 25 7 0 12 10 11 23 -4 45 1 66 19 70 16 4 16 5 0 6 -12
1 -18 9 -18 26 0 14 -4 25 -9 25 -5 0 -18 3 -28 6 -14 4 -15 4 -4 -4 8 -6 12
-20 9 -36 -3 -14 -1 -26 3 -26 5 0 4 -11 -1 -25 -5 -14 -7 -30 -5 -37 6 -17
-34 -65 -43 -52 -4 6 -15 13 -24 17 -24 9 -23 24 3 38 17 9 19 13 8 20 -11 7
-12 12 -2 28 11 17 9 24 -13 50 -14 18 -22 36 -18 42 5 9 2 10 -9 6 -24 -9
-21 -1 12 41 16 20 32 53 36 72 4 19 12 40 17 47 5 7 5 14 -1 17 -7 5 -7 15
-1 31 6 15 6 25 0 25 -5 0 -12 16 -16 35 -4 25 -12 35 -24 35 -17 0 -17 -3 -3
-47z m-34 -295 c26 -36 34 -103 12 -112 -20 -7 -75 37 -65 54 4 7 4 23 -2 36
-8 17 -8 27 2 39 18 22 26 19 53 -17z m-79 -31 c6 -9 7 -19 3 -23 -9 -10 -48
26 -41 38 8 12 25 6 38 -15z"/>
<path d="M1020 2988 c0 -4 4 -9 10 -13 5 -3 8 -11 6 -18 -1 -7 -1 -9 1 -4 3 4
10 7 17 7 7 0 21 9 31 20 17 19 16 19 -24 17 -23 -1 -41 -5 -41 -9z"/>
<path d="M1437 2980 c3 -11 0 -20 -6 -20 -6 0 -11 -5 -11 -11 0 -5 5 -7 12 -3
8 5 9 2 3 -12 -4 -10 -10 -29 -12 -41 -3 -13 -10 -20 -19 -16 -8 3 -14 0 -14
-6 0 -6 5 -11 10 -11 6 0 10 -7 10 -15 0 -8 6 -15 14 -15 9 0 12 8 9 24 -5 24
11 66 25 66 4 0 19 -22 34 -49 20 -37 24 -51 15 -61 -9 -9 -8 -11 8 -8 14 2
19 -2 17 -14 -2 -12 2 -16 13 -12 9 4 15 1 15 -7 0 -8 18 -33 40 -57 22 -24
40 -47 40 -52 0 -11 -32 -1 -42 14 -5 7 -8 7 -8 -1 0 -9 -23 -13 -80 -13 -44
0 -80 3 -80 8 0 4 -17 6 -37 5 -49 -2 -114 7 -108 16 2 4 -4 7 -13 7 -62 0
-73 4 -67 23 9 30 -15 41 -62 30 -33 -9 -47 -8 -72 5 -17 9 -31 21 -31 27 0 6
-5 7 -11 4 -10 -7 -90 41 -97 58 -2 4 -8 5 -13 2 -15 -10 96 -100 163 -133
110 -54 198 -74 355 -79 140 -5 194 -1 222 16 12 8 8 17 -20 53 -73 89 -180
261 -176 280 4 12 0 18 -13 18 -13 0 -17 -5 -13 -20z"/>
<path d="M1566 2953 c84 -147 198 -240 399 -327 33 -15 73 -33 88 -41 32 -17
54 -11 37 10 -7 9 -8 15 -1 20 7 4 1 25 -17 58 -24 47 -27 62 -27 157 0 58 3
120 7 138 10 43 -3 40 -23 -6 -11 -26 -15 -63 -14 -128 2 -99 17 -157 48 -191
27 -30 15 -40 -20 -17 -30 20 -86 48 -115 58 -10 3 -18 12 -18 20 0 9 -7 12
-18 9 -19 -5 -122 53 -122 68 0 5 -7 9 -15 9 -8 0 -15 7 -15 16 0 8 -5 12 -11
9 -14 -9 -52 32 -43 47 5 8 2 9 -9 5 -15 -6 -22 3 -18 26 0 4 -6 7 -14 7 -8 0
-23 12 -32 27 -51 79 -91 100 -47 26z"/>
<path d="M1986 2974 c-4 -15 -5 -28 -3 -31 7 -7 37 27 37 43 0 25 -28 15 -34
-12z"/>
<path d="M2093 2929 c7 -93 29 -175 69 -262 49 -106 148 -183 148 -115 0 11
-4 16 -11 12 -12 -7 -99 73 -99 91 0 5 7 1 15 -9 18 -23 30 -15 17 11 -5 10
-7 24 -5 31 6 16 -2 15 -21 -3 -14 -14 -17 -12 -31 22 -24 57 -53 165 -60 228
-11 87 -29 82 -22 -6z"/>
<path d="M2223 2935 c1 -49 5 -65 15 -65 11 0 13 8 8 31 -3 17 -6 47 -6 65 0
19 -4 34 -9 34 -5 0 -9 -29 -8 -65z"/>
<path d="M275 2953 c-12 -74 -12 -83 -6 -83 7 0 31 81 31 105 0 31 -19 13 -25
-22z"/>
<path d="M2941 2976 c-9 -10 -8 -16 4 -26 8 -7 15 -19 15 -26 0 -20 18 -17 30
5 14 26 13 31 -5 25 -9 -4 -15 0 -15 9 0 22 -16 29 -29 13z"/>
<path d="M875 2913 c-13 -29 -5 -74 22 -126 13 -27 22 -51 20 -53 -2 -3 13
-23 34 -46 20 -23 40 -56 43 -74 5 -26 10 -31 26 -27 20 5 27 -7 13 -21 -18
-18 -14 -61 8 -77 l22 -17 -23 -7 c-16 -5 -26 -3 -28 4 -3 9 -8 9 -20 -1 -11
-9 -61 -13 -183 -14 -93 0 -171 -2 -173 -5 -3 -3 39 -15 94 -28 97 -23 101
-23 192 -7 116 20 165 33 174 48 4 6 3 8 -4 4 -6 -3 -13 -2 -17 4 -3 6 4 10
17 10 13 0 29 5 34 10 7 7 19 8 37 1 36 -14 35 4 -1 23 -87 45 -262 272 -262
340 0 13 -5 26 -11 28 -9 3 -9 10 0 26 6 12 8 22 2 22 -5 0 -12 -8 -16 -17z
m244 -404 c1 -8 -51 -19 -61 -12 -5 2 -8 20 -8 40 l0 35 34 -29 c19 -15 35
-31 35 -34z"/>
<path d="M2930 2892 c0 -4 5 -13 11 -19 17 -17 0 -35 -26 -29 -19 5 -22 2 -17
-19 2 -14 9 -28 14 -31 5 -3 5 -10 0 -17 -18 -23 -22 -75 -7 -81 9 -3 15 1 15
9 0 8 7 15 15 15 17 0 20 16 5 25 -6 4 -7 12 -1 23 5 10 5 22 -2 33 -9 15 -6
23 18 43 16 14 27 27 25 29 -15 13 -50 26 -50 19z"/>
<path d="M2430 2735 c-12 -27 -24 -62 -27 -76 -5 -25 -7 -26 -56 -21 -31 2
-57 11 -64 20 -17 21 -27 9 -14 -16 8 -15 8 -21 -2 -25 -6 -2 4 -3 24 -2 20 1
42 6 49 10 7 4 16 2 20 -5 5 -7 15 -10 25 -6 14 5 16 2 10 -16 -10 -31 -6
-131 5 -142 17 -17 24 3 10 29 -10 19 -11 28 -3 36 6 6 9 18 6 25 -3 8 -2 25
1 38 4 18 11 23 26 19 11 -3 20 -10 20 -16 0 -6 6 -3 13 7 12 16 17 14 60 -28
26 -26 47 -42 47 -36 0 5 12 10 26 10 14 0 23 -4 19 -10 -3 -5 -1 -10 5 -10 7
0 9 8 5 21 -6 18 -4 20 14 14 15 -5 21 -2 21 9 0 9 7 16 15 16 18 0 19 12 3
28 -8 8 -8 15 2 27 9 11 9 15 0 15 -6 0 -10 6 -7 13 2 6 14 11 25 9 17 -3 20
1 15 14 -5 13 -3 16 10 11 12 -4 17 -1 17 10 0 12 3 13 14 4 8 -7 12 -21 9
-32 -4 -14 -1 -18 10 -13 8 3 18 1 22 -5 3 -6 1 -11 -6 -11 -7 0 -10 -3 -6 -6
3 -3 20 4 37 16 17 12 38 19 47 16 12 -5 14 -1 9 16 -3 13 -6 26 -6 31 0 11
-20 8 -20 -4 0 -17 -29 -41 -44 -36 -8 3 -24 24 -37 46 -21 38 -41 50 -40 26
0 -6 -7 -14 -15 -18 -8 -4 -14 -14 -14 -21 0 -19 -49 -30 -66 -15 -8 7 -17 9
-20 6 -7 -6 18 -47 28 -47 5 0 8 -16 8 -35 0 -26 -3 -33 -15 -29 -9 4 -15 0
-15 -10 0 -20 -9 -20 -32 1 -10 9 -21 13 -26 8 -4 -4 -1 -10 6 -12 15 -6 16
-23 1 -23 -15 0 -59 51 -59 68 0 16 -18 15 -36 -3 -14 -13 -37 -10 -62 10 -1
1 7 30 19 64 25 79 19 103 -11 36z"/>
<path d="M0 2529 c0 -24 24 -42 195 -152 43 -27 115 -92 115 -103 0 -3 14 -22
30 -41 17 -19 34 -48 37 -65 3 -18 9 -25 13 -18 4 7 8 -14 9 -46 0 -34 6 -61
13 -66 10 -6 10 -8 0 -8 -9 0 -11 -14 -6 -57 4 -32 11 -59 15 -61 5 -2 4 -13
-2 -24 -12 -23 -3 -89 14 -100 9 -6 8 -8 -1 -8 -7 0 -11 -4 -8 -9 3 -5 -1 -12
-10 -15 -9 -3 -14 -13 -10 -21 3 -8 0 -17 -6 -21 -7 -4 -8 -3 -4 4 4 7 3 12
-2 12 -11 0 -23 -26 -15 -33 7 -7 68 27 115 65 21 16 79 79 129 139 50 61 97
113 105 116 13 5 20 33 9 33 -18 0 -214 -74 -242 -91 -50 -31 -35 -32 38 -4
35 14 70 23 77 20 7 -2 11 -1 8 3 -3 5 8 13 25 19 16 6 29 9 29 7 0 -10 -104
-136 -153 -184 l-52 -52 -7 59 c-4 32 -9 110 -12 173 -3 67 -11 133 -20 159
-12 33 -13 47 -5 57 8 10 8 14 0 14 -6 0 -11 -6 -11 -12 -1 -7 -12 0 -25 16
-13 17 -22 33 -19 38 3 4 -2 8 -10 8 -9 0 -16 5 -16 10 0 18 -93 100 -155 138
-33 20 -66 42 -73 49 -7 7 -18 13 -23 13 -6 0 -8 4 -5 9 3 5 -2 8 -12 7 -10 0
-17 6 -16 16 1 10 -4 14 -12 11 -8 -3 -21 0 -29 7 -13 10 -15 9 -15 -11z"/>
<path d="M543 2533 c-20 -8 -15 -36 15 -84 16 -24 27 -50 26 -57 -1 -7 0 -8 2
-3 3 6 29 -5 58 -23 42 -28 66 -35 129 -41 104 -10 100 7 -7 29 -96 21 -154
54 -193 111 -21 31 -24 42 -14 57 11 18 7 21 -16 11z"/>
<path d="M240 2502 c0 -5 9 -17 19 -26 14 -12 21 -14 26 -6 4 7 18 10 31 7 27
-5 31 5 9 23 -12 10 -18 10 -30 0 -12 -10 -19 -10 -27 -2 -14 14 -28 16 -28 4z"/>
<path d="M2520 2388 c0 -16 51 -51 105 -74 46 -19 219 -22 235 -3 3 3 13 10
24 16 14 8 -14 10 -104 10 -103 0 -125 2 -135 16 -7 9 -15 14 -18 10 -8 -8
-67 17 -67 28 0 5 -9 9 -20 9 -11 0 -20 -6 -20 -12z"/>
<path d="M2982 2347 c-7 -8 -21 -13 -32 -10 -11 3 -20 1 -20 -5 0 -5 -13 -15
-28 -21 -16 -7 -42 -24 -59 -39 -16 -16 -57 -36 -91 -46 -33 -11 -63 -25 -66
-33 -10 -25 60 -115 144 -187 45 -37 84 -65 88 -62 3 4 -36 48 -87 99 -122
122 -122 121 -69 148 24 12 73 43 109 70 37 27 73 49 80 49 21 1 52 27 47 40
-3 9 -8 8 -16 -3z"/>
<path d="M467 2283 c-8 -7 19 -34 47 -48 27 -14 128 -10 191 7 37 10 50 18 52
33 1 16 1 16 -3 3 -7 -22 -44 -24 -44 -3 0 8 -4 15 -10 15 -5 0 -10 -7 -10
-15 0 -21 -38 -19 -43 3 -4 16 -5 16 -6 0 -2 -26 -101 -27 -101 -1 0 15 -1 15
-19 -1 -17 -15 -20 -15 -34 -2 -8 8 -17 12 -20 9z"/>
<path d="M1085 2276 c-68 -30 -223 -197 -213 -228 3 -7 -4 -33 -14 -57 -10
-25 -16 -52 -13 -60 5 -12 11 -5 22 24 21 53 66 114 100 137 19 12 23 18 12
18 -9 0 -28 -10 -43 -21 -15 -12 -29 -19 -31 -17 -8 8 154 162 189 180 20 10
36 23 36 28 0 13 -8 12 -45 -4z"/>
<path d="M850 2242 c-30 -16 -73 -40 -95 -54 -22 -13 -46 -23 -54 -20 -8 3
-11 0 -7 -7 4 -6 0 -14 -10 -18 -10 -4 -25 -12 -34 -19 -118 -96 -133 -106
-140 -94 -5 9 -9 9 -14 1 -4 -6 -2 -11 5 -11 8 0 8 -4 -1 -15 -7 -8 -17 -12
-24 -8 -6 3 -8 3 -4 -2 4 -4 2 -15 -5 -23 -6 -8 53 29 133 82 80 53 156 102
170 109 104 56 151 77 174 77 29 0 35 14 10 24 -28 11 -48 6 -104 -22z"/>
<path d="M1461 2147 c-1 -10 -5 -16 -11 -12 -32 20 -113 -327 -140 -602 -12
-124 -12 -125 0 -118 6 3 10 18 10 33 0 82 109 641 129 664 3 4 6 -59 6 -140
1 -149 15 -287 41 -376 8 -27 14 -57 14 -66 0 -10 -25 -35 -57 -56 -72 -50
-94 -80 -101 -139 -5 -45 -6 -46 -31 -40 -90 22 -135 27 -152 17 -14 -9 -17
-5 -23 34 -6 50 -24 83 -75 136 l-35 38 28 122 c16 68 32 130 37 138 9 16 12
-40 10 -160 -1 -36 3 -78 8 -95 8 -27 9 -25 11 25 l1 55 18 -55 c26 -81 50
-130 88 -177 35 -44 69 -61 39 -20 -27 37 -69 119 -89 172 -18 50 -57 211 -52
217 1 2 5 35 9 73 4 54 3 64 -5 45 -5 -14 -21 -36 -34 -50 -25 -27 -58 -124
-76 -224 l-11 -64 -52 21 -53 21 19 75 c11 42 31 114 45 161 14 47 27 93 30
103 9 28 -14 19 -25 -10 -29 -73 -82 -272 -82 -310 0 -13 -18 -24 -63 -41 -34
-13 -74 -28 -90 -34 -15 -6 -39 -29 -53 -52 l-26 -41 6 40 c4 32 14 47 48 75
75 61 183 168 176 175 -3 3 -21 -8 -39 -25 -19 -18 -50 -43 -69 -58 -19 -14
-48 -37 -64 -51 -28 -25 -28 -26 -22 -3 4 12 3 22 -2 22 -13 0 -28 -21 -36
-50 -4 -16 -36 -48 -86 -85 -47 -35 -79 -67 -80 -78 0 -10 4 -16 9 -12 5 3 19
-8 31 -25 12 -16 18 -30 13 -30 -4 0 -2 -4 5 -8 21 -14 26 -76 8 -95 -9 -8
-16 -21 -16 -27 0 -6 -4 -9 -9 -5 -14 8 -24 -56 -19 -129 4 -61 5 -64 57 -115
56 -53 123 -90 201 -111 25 -7 52 -15 60 -18 8 -3 20 -4 27 -3 6 1 14 -2 17
-7 6 -10 8 -10 -99 -17 -142 -10 -162 -14 -168 -36 -16 -60 41 -76 193 -55 30
5 61 13 67 18 11 9 65 18 118 19 11 0 34 9 52 19 22 13 33 15 33 7 0 -7 7 -3
15 7 11 14 15 16 15 5 0 -11 2 -11 9 -1 4 7 12 12 17 10 5 -2 36 5 69 14 76
21 205 48 226 48 9 0 19 7 23 15 3 8 10 15 16 15 6 0 9 -4 6 -8 -3 -5 14 -6
37 -3 23 4 48 6 55 5 6 -1 21 -2 33 -3 11 0 17 -5 14 -11 -3 -5 0 -7 8 -4 23
8 68 -14 146 -74 69 -52 73 -57 50 -63 -40 -9 -89 -30 -89 -39 0 -4 -13 -13
-30 -20 -16 -7 -40 -22 -52 -34 -13 -12 -43 -37 -68 -56 -42 -31 -100 -87
-100 -97 0 -19 25 -43 46 -43 23 0 92 37 124 67 29 27 86 63 148 93 62 31 73
44 50 53 -8 3 -6 6 5 6 9 1 17 -5 17 -11 0 -8 3 -9 8 -3 4 6 16 12 27 14 38 6
57 22 52 42 -6 21 40 60 77 64 46 6 139 34 154 48 18 15 78 48 87 47 3 0 15 9
27 20 24 22 38 26 38 10 0 -6 13 -1 28 10 16 12 41 23 58 25 16 2 31 4 34 5 3
2 8 2 13 1 4 0 7 4 7 9 0 6 10 10 23 10 27 0 41 10 50 34 6 14 10 16 21 7 7
-6 21 -9 30 -5 10 4 16 1 16 -8 0 -8 6 -15 13 -15 30 -2 100 -14 108 -19 5 -3
7 -9 4 -14 -6 -10 23 -22 36 -14 5 3 9 -2 9 -10 0 -14 12 -20 33 -17 4 0 7 -3
7 -9 0 -5 6 -10 14 -10 7 0 35 -20 62 -45 26 -25 50 -45 53 -45 2 0 13 -7 23
-17 17 -15 18 -15 18 1 0 10 -7 24 -15 33 -8 8 -13 18 -10 23 3 4 -5 10 -16
13 -12 3 -18 10 -15 15 3 5 -2 9 -12 8 -12 -1 -16 5 -14 19 2 13 0 16 -5 8 -6
-8 -13 -9 -23 -2 -13 8 -13 10 0 20 13 9 12 10 -2 5 -20 -6 -98 32 -105 51 -3
7 -13 13 -23 13 -11 0 -21 4 -25 9 -3 5 -19 12 -35 16 -19 4 -30 13 -30 23 0
11 -3 13 -8 6 -11 -17 -50 -23 -56 -9 -6 16 17 38 28 27 4 -4 7 -2 6 3 -5 21
1 34 13 31 6 -1 9 -1 5 1 -5 3 -8 11 -8 19 0 10 7 13 24 8 21 -5 24 -3 19 15
-3 12 -1 21 6 21 6 0 11 -5 11 -11 0 -8 4 -9 13 0 8 6 16 8 20 5 3 -3 25 -6
49 -7 32 -1 44 3 46 14 2 10 -6 19 -19 22 -17 5 -21 11 -17 31 3 14 1 27 -4
28 -6 2 -16 18 -24 36 -11 27 -11 32 1 32 8 0 16 -4 19 -9 4 -6 17 -6 34 0 15
4 40 11 56 14 48 10 16 22 -76 29 -68 5 -88 3 -88 -6 1 -7 16 -44 35 -83 18
-38 32 -71 30 -74 -3 -2 -25 3 -49 11 -50 17 -56 15 -56 -18 0 -26 -18 -42
-24 -22 -2 7 -8 39 -14 70 -6 32 -25 87 -42 123 -28 59 -34 65 -72 76 -28 7
-53 8 -79 1 -21 -5 -40 -7 -43 -5 -3 3 1 21 9 40 17 39 20 67 6 59 -4 -3 -14
-27 -21 -53 -7 -27 -19 -53 -27 -59 -9 -8 -12 -21 -7 -38 7 -30 20 -34 26 -8
7 27 75 42 119 28 38 -13 67 -56 99 -150 30 -90 27 -106 -30 -162 -60 -59 -54
-55 -172 -94 -54 -18 -132 -52 -175 -76 -42 -24 -112 -53 -157 -65 -45 -12
-103 -34 -131 -48 l-50 -28 -30 21 c-17 12 -51 37 -75 57 -65 52 -107 74 -177
93 -52 14 -72 15 -125 5 -161 -28 -274 -54 -350 -80 -72 -24 -122 -20 -235 17
-39 13 -83 24 -97 24 -14 0 -28 5 -31 10 -3 6 -13 10 -22 10 -14 0 -77 27 -98
42 -5 4 -28 22 -50 42 l-40 34 0 86 c0 80 2 87 26 110 15 14 38 47 50 75 13
28 27 50 30 51 4 0 9 -18 13 -40 8 -50 64 -116 121 -141 26 -12 64 -19 108
-19 63 0 72 3 127 40 34 23 69 57 82 79 16 27 31 41 52 45 46 10 79 7 109 -9
21 -10 34 -12 47 -5 26 14 30 13 30 -8 0 -32 70 -131 103 -147 196 -91 377
-14 377 161 0 73 -12 112 -57 180 -47 71 -80 87 -171 82 -58 -2 -73 0 -77 12
-2 8 -13 60 -24 115 -37 189 -47 395 -24 479 3 11 1 16 -5 12 -6 -3 -13 0 -15
6 -3 8 -6 6 -6 -5z m-439 -695 c32 -33 58 -64 58 -70 0 -7 -15 -12 -32 -13
-18 0 -44 -2 -58 -4 -14 -2 -77 -7 -140 -10 -63 -4 -123 -12 -132 -17 -29 -14
-23 33 9 73 44 56 83 83 132 90 98 14 100 13 163 -49z m650 25 c28 -12 118
-93 118 -105 0 -4 -25 -6 -55 -5 -72 2 -185 -13 -274 -35 -39 -10 -73 -16 -76
-14 -6 7 24 63 49 90 20 22 95 67 100 60 1 -2 10 -24 20 -50 24 -66 39 -60 16
6 -10 30 -16 57 -13 60 11 10 87 6 115 -7z m-1023 -79 c-3 -40 -14 -89 -24
-108 l-18 -35 -17 64 c-10 35 -24 68 -31 73 -12 8 -12 10 0 15 7 3 28 18 45
34 47 43 52 38 45 -43z m471 -59 c9 -33 9 -45 -2 -55 -11 -11 -13 -4 -13 41 0
30 1 55 2 55 1 0 7 -19 13 -41z m-32 -7 c2 -7 -4 -12 -14 -12 -9 0 -14 -3 -10
-7 4 -5 12 -8 18 -8 6 0 12 -14 12 -32 1 -17 -1 -30 -2 -28 -2 2 -17 -12 -34
-30 -39 -45 -81 -65 -135 -65 -71 0 -129 19 -166 55 -39 38 -64 93 -44 100 33
10 97 13 103 4 4 -7 10 -6 19 1 8 6 24 10 37 9 13 -2 29 0 36 5 8 5 18 4 25
-3 16 -16 67 -14 73 4 4 8 15 15 26 15 12 0 17 -5 13 -12 -3 -7 0 -5 7 5 14
18 29 18 36 -1z m722 -39 c0 -19 -3 -32 -7 -30 -5 3 -8 -10 -9 -29 -2 -84
-144 -152 -253 -121 -67 19 -132 81 -146 139 -6 25 -4 28 37 39 23 6 60 12 80
13 21 0 38 5 38 10 0 4 9 6 20 3 11 -3 20 -1 20 4 0 5 7 9 15 9 8 0 15 -4 15
-10 0 -5 19 -9 43 -9 l42 2 -35 6 -35 7 32 5 c18 3 38 1 44 -5 8 -8 13 -7 16
2 7 18 24 15 50 -10 13 -12 23 -17 23 -11 0 6 -7 14 -16 17 -8 3 -12 11 -9 16
12 20 35 -11 35 -47z m-765 -522 c-9 -8 -140 -43 -210 -55 -16 -3 -68 -6 -115
-8 -71 -2 -85 0 -88 13 -2 14 16 17 134 21 78 3 139 10 143 16 6 10 42 16 116
20 17 1 25 -2 20 -7z m902 -106 c-2 -5 -26 -12 -53 -15 -58 -6 -122 -44 -328
-192 -67 -48 -92 -33 -30 18 190 153 280 203 359 201 33 -1 54 -5 52 -12z"/>
<path d="M1640 2053 c0 -184 56 -393 161 -605 75 -153 129 -232 146 -214 3 3
-8 22 -24 43 -131 166 -279 620 -265 813 3 48 1 70 -7 70 -7 0 -11 -34 -11
-107z"/>
<path d="M1786 2101 c-17 -27 73 -567 103 -619 9 -15 10 -15 11 -1 0 9 -18
124 -40 255 -22 131 -43 268 -47 306 -5 63 -14 81 -27 59z"/>
<path d="M73 1877 c-37 -21 -54 -49 -47 -81 11 -53 23 -76 41 -83 10 -4 24
-15 31 -25 7 -10 23 -18 35 -17 20 1 20 2 -3 8 l-25 7 30 9 c17 4 33 8 38 7 4
-1 12 9 18 22 12 26 4 120 -10 112 -4 -3 -19 8 -33 23 -28 30 -46 34 -75 18z
m66 -53 c27 -34 28 -90 3 -103 -27 -14 -59 11 -72 57 -14 51 -13 60 8 65 34 9
41 7 61 -19z"/>
<path d="M2304 1845 c-10 -53 25 -336 46 -374 15 -28 17 6 4 89 -22 140 -35
280 -29 301 4 10 2 19 -4 19 -5 0 -13 -16 -17 -35z"/>
<path d="M2840 1847 c0 -37 88 -165 143 -206 32 -25 20 15 -20 63 -21 25 -51
62 -66 83 l-28 38 65 3 c58 3 66 5 66 22 0 18 -7 20 -80 20 -77 0 -80 -1 -80
-23z"/>
<path d="M675 1786 c-11 -8 -75 -33 -142 -57 -81 -28 -120 -46 -116 -55 2 -7
-4 -14 -14 -17 -10 -3 -4 -5 15 -6 25 -1 32 -5 32 -22 0 -12 4 -17 11 -13 7 4
9 0 5 -14 -4 -11 -2 -23 4 -27 6 -3 8 -11 5 -16 -4 -5 1 -16 9 -25 20 -20 20
-53 0 -82 -8 -12 -14 -30 -12 -40 3 -13 17 -3 61 43 66 69 112 145 123 201 4
21 15 56 26 77 25 50 22 74 -7 53z m-19 -52 c-4 -9 -12 -37 -18 -62 -10 -42
-67 -154 -89 -177 -6 -5 -9 -2 -9 9 0 9 -6 24 -14 31 -12 12 -42 144 -34 149
7 5 154 64 162 65 4 0 5 -6 2 -15z"/>
<path d="M2204 1695 c20 -260 16 -532 -10 -598 -3 -9 -1 -17 4 -17 14 0 67 95
83 147 14 49 29 47 29 -3 0 -19 5 -34 11 -34 9 0 10 22 5 77 -9 116 -17 113
-66 -25 -18 -51 -35 -91 -36 -89 -2 2 0 28 6 57 16 84 12 371 -6 469 -9 47
-18 88 -21 91 -3 3 -3 -31 1 -75z"/>
<path d="M2893 1573 c-66 -15 -77 -29 -50 -64 53 -69 85 -99 109 -104 15 -4
32 -14 38 -23 8 -15 9 -14 10 6 0 17 -7 24 -30 29 -17 3 -30 12 -30 20 0 8
-21 34 -47 58 l-48 42 30 6 c17 3 51 9 78 12 31 4 47 11 47 21 0 17 -25 17
-107 -3z"/>
<path d="M1955 1519 c11 -62 51 -185 57 -169 2 8 18 -11 36 -43 34 -60 111
-147 130 -147 6 0 -14 33 -44 73 -64 84 -126 202 -145 276 -8 31 -18 51 -27
51 -11 0 -12 -9 -7 -41z"/>
<path d="M2760 1442 c0 -57 92 -123 193 -137 43 -7 47 -6 47 14 0 12 -6 21
-16 21 -8 0 -13 4 -10 8 2 4 -10 8 -29 8 -43 0 -147 53 -160 82 -12 26 -25 29
-25 4z"/>
<path d="M2504 1236 c5 -40 20 -65 32 -53 9 9 -2 49 -21 72 -16 19 -16 18 -11
-19z"/>
<path d="M2400 1104 c-22 -20 -40 -42 -40 -49 0 -7 -9 -24 -20 -38 -11 -14
-20 -32 -20 -41 0 -15 3 -14 28 3 15 10 50 26 77 35 28 9 62 26 78 39 l27 22
-20 33 c-27 43 -59 42 -110 -4z m85 -8 c18 -13 18 -14 -4 -25 -38 -21 -101
-40 -101 -32 0 13 62 71 75 71 6 0 20 -6 30 -14z"/>
<path d="M1327 1009 l-24 -31 -127 1 c-118 2 -127 1 -124 -16 3 -16 14 -18
111 -15 l107 3 -6 -31 c-8 -38 17 -42 34 -6 6 14 27 43 47 64 19 22 35 45 35
51 0 21 -29 11 -53 -20z"/>
<path d="M405 837 c-93 -66 -136 -110 -146 -153 -11 -48 -11 -421 0 -449 7
-18 9 -17 14 10 4 17 6 62 6 100 -1 39 0 131 0 206 l1 137 38 36 c64 63 182
140 195 127 14 -14 11 -17 -109 -99 l-99 -67 -3 -118 c-2 -80 1 -116 8 -112 5
3 10 1 10 -4 0 -6 -4 -11 -10 -11 -6 0 -10 -41 -10 -104 0 -58 -4 -107 -9
-110 -11 -7 20 -73 48 -103 28 -29 137 -81 186 -89 73 -11 176 -13 170 -4 -3
5 4 11 15 15 25 8 25 16 -1 38 -25 22 -73 42 -64 27 3 -6 1 -10 -4 -10 -6 0
-11 4 -11 8 0 4 -9 8 -20 9 -66 5 -204 75 -253 128 -10 11 -15 14 -11 6 4 -9
2 -12 -7 -9 -10 3 -14 25 -14 81 0 41 -3 79 -7 82 -4 4 -2 15 4 24 7 12 7 40
0 93 -5 41 -7 88 -5 104 6 32 31 66 43 59 7 -4 57 29 70 46 3 3 19 13 35 22
52 29 73 52 72 80 -1 15 -6 27 -10 27 -5 0 -5 5 -2 10 4 6 -7 10 -27 10 -22
-1 -52 -14 -93 -43z m-56 -634 c25 -48 180 -109 325 -128 59 -8 49 -29 -14
-27 -155 6 -340 92 -340 158 0 20 17 18 29 -3z"/>
<path d="M1338 393 c-6 -8 -13 -11 -16 -9 -2 3 -14 0 -26 -7 -11 -6 -25 -12
-31 -12 -5 -1 -24 -9 -42 -18 -18 -9 -38 -17 -46 -17 -8 0 -17 -7 -21 -15 -3
-8 -11 -12 -18 -10 -8 3 -42 -8 -76 -25 -34 -16 -66 -30 -71 -30 -5 0 -11 -3
-13 -7 -1 -5 -24 -19 -49 -32 -69 -36 -120 -73 -142 -103 -18 -24 -19 -31 -7
-53 7 -14 16 -23 18 -20 3 3 11 -4 19 -15 13 -19 25 -20 196 -19 196 2 173 11
-63 24 -108 7 -143 15 -127 32 15 14 243 2 337 -18 52 -12 111 -23 130 -26 30
-5 32 -4 20 9 -31 31 -174 68 -261 68 -57 0 -71 8 -56 31 6 10 18 19 25 19 8
0 26 6 40 14 15 8 59 29 97 48 39 18 72 35 75 39 3 3 30 18 60 33 108 52 130
70 130 102 0 13 -3 25 -7 25 -35 6 -66 3 -75 -8z m70 -15 c-2 -7 -117 -69
-254 -138 -137 -69 -271 -138 -297 -153 -43 -26 -67 -28 -67 -8 0 8 189 121
265 159 22 11 96 43 165 73 69 29 136 59 150 66 32 16 43 16 38 1z"/>
<path d="M2641 278 c-41 -10 -86 -26 -100 -35 -39 -27 -64 -41 -89 -52 -12 -6
-32 -20 -44 -31 -12 -11 -29 -20 -37 -20 -14 0 -14 1 -1 10 13 8 12 10 -4 10
-29 0 -156 -33 -156 -41 0 -4 -17 -10 -37 -15 -21 -4 -40 -8 -43 -9 -43 -17
-70 -31 -70 -37 0 -4 -7 -8 -15 -8 -8 0 -15 -4 -15 -10 0 -13 39 -13 78 1 22
7 29 15 25 26 -5 12 -1 14 14 9 12 -4 53 4 96 18 41 14 94 27 118 29 30 3 72
20 132 55 114 65 199 85 365 85 68 -1 126 -4 129 -7 17 -17 -24 -25 -159 -35
-172 -12 -243 -28 -347 -80 -42 -21 -111 -47 -154 -56 -43 -10 -80 -22 -83
-26 -6 -10 67 -60 78 -53 4 3 3 14 -2 25 -6 10 -7 20 -3 21 4 0 13 2 18 3 37
7 65 19 65 27 0 5 4 7 9 4 10 -7 93 24 103 39 4 5 8 6 8 1 0 -5 6 -4 13 1 21
17 80 34 137 39 30 3 62 7 70 10 8 3 38 7 65 9 28 2 61 6 75 9 14 3 42 8 63
10 21 3 42 8 47 11 16 10 8 65 -10 66 -18 2 -33 5 -40 9 -3 2 -54 4 -115 5
-79 1 -131 -3 -184 -17z"/>
<path d="M13 249 c7 -30 6 -46 -3 -65 -7 -13 -11 -27 -7 -30 10 -10 28 7 42
40 11 26 11 35 -3 58 -26 45 -41 43 -29 -3z"/>
<path d="M1667 113 c-3 -2 -31 -6 -63 -9 -81 -7 -160 -31 -214 -65 -39 -25
-42 -29 -20 -29 13 0 54 11 90 25 72 27 256 57 309 50 18 -2 44 -11 57 -20 13
-8 24 -11 24 -6 0 20 -44 51 -74 53 -72 5 -106 5 -109 1z"/>
<path d="M1588 30 c-136 -25 -138 -28 -15 -29 59 -1 107 3 107 7 0 4 32 9 72
11 79 3 103 10 72 22 -32 13 -134 8 -236 -11z"/>
<path d="M2165 27 c-11 -7 -56 -15 -100 -18 -71 -5 -66 -6 50 -7 l130 -1 -24
19 c-27 23 -29 23 -56 7z"/>
</g>
</svg>
